<svg width="84" height="75" viewBox="0 0 84 75" fill="none" xmlns="http://www.w3.org/2000/svg">
<path d="M2.5394 35.8772V13.7437H11.7689C13.426 13.7437 14.8129 13.9779 15.9297 14.4462C17.0537 14.9145 17.8966 15.5701 18.4586 16.4131C19.0278 17.2561 19.3124 18.2324 19.3124 19.3419C19.3124 20.1849 19.1359 20.9378 18.7829 21.6007C18.4298 22.2563 17.9435 22.8003 17.3239 23.2326C16.7042 23.6649 15.9873 23.9675 15.1732 24.1404V24.3565C16.0666 24.3998 16.8916 24.6411 17.6481 25.0806C18.4118 25.5201 19.0242 26.1325 19.4853 26.9179C19.9464 27.696 20.177 28.6182 20.177 29.6846C20.177 30.8734 19.8744 31.9361 19.2692 32.8727C18.664 33.8022 17.7886 34.5371 16.643 35.0774C15.4974 35.6106 14.1069 35.8772 12.4714 35.8772H2.5394ZM7.88904 31.565H11.1961C12.3561 31.565 13.2099 31.3453 13.7574 30.9058C14.3122 30.4663 14.5896 29.8539 14.5896 29.0685C14.5896 28.4993 14.4563 28.0094 14.1897 27.5987C13.9231 27.1808 13.5449 26.8602 13.055 26.6369C12.565 26.4063 11.9778 26.291 11.2934 26.291H7.88904V31.565ZM7.88904 22.8435H10.8503C11.4338 22.8435 11.9526 22.7462 12.4065 22.5517C12.8604 22.3572 13.2135 22.0762 13.4656 21.7087C13.725 21.3413 13.8547 20.8982 13.8547 20.3794C13.8547 19.6373 13.5917 19.0537 13.0658 18.6286C12.5398 18.2035 11.8301 17.991 10.9367 17.991H7.88904V22.8435ZM27.5368 35.8772H21.7873L29.2552 13.7437H36.3772L43.8451 35.8772H38.0956L32.8973 19.3203H32.7243L27.5368 35.8772ZM26.7695 27.1664H38.7873V31.23H26.7695V27.1664Z" fill="black"/>
<path d="M57.0434 47.2787H51.6397C51.5676 46.7239 51.4199 46.2231 51.1966 45.7764C50.9732 45.3297 50.6778 44.9479 50.3104 44.6309C49.9429 44.3138 49.507 44.0725 49.0027 43.9068C48.5055 43.7338 47.9544 43.6474 47.3492 43.6474C46.2756 43.6474 45.3498 43.9104 44.5717 44.4363C43.8007 44.9623 43.2063 45.7224 42.7885 46.7167C42.3778 47.711 42.1724 48.9142 42.1724 50.3263C42.1724 51.7961 42.3814 53.0282 42.7993 54.0225C43.2244 55.0095 43.8188 55.7552 44.5825 56.2596C45.3534 56.7567 46.2648 57.0053 47.3167 57.0053C47.9075 57.0053 48.4443 56.9296 48.927 56.7783C49.417 56.627 49.8457 56.4073 50.2131 56.1191C50.5878 55.8237 50.894 55.467 51.1317 55.0491C51.3767 54.6241 51.546 54.1449 51.6397 53.6118L57.0434 53.6442C56.9497 54.6241 56.6651 55.5895 56.1896 56.5406C55.7213 57.4916 55.0764 58.3598 54.2551 59.1451C53.4337 59.9233 52.4322 60.5429 51.2506 61.004C50.0762 61.4651 48.7289 61.6957 47.2087 61.6957C45.2057 61.6957 43.4117 61.2562 41.8266 60.3772C40.2487 59.491 39.0023 58.2013 38.0873 56.5081C37.1722 54.815 36.7147 52.7544 36.7147 50.3263C36.7147 47.8911 37.1794 45.8269 38.1089 44.1337C39.0383 42.4406 40.2956 41.1545 41.8806 40.2755C43.4657 39.3965 45.2417 38.957 47.2087 38.957C48.5488 38.957 49.788 39.1443 50.9264 39.519C52.0648 39.8864 53.0662 40.4268 53.9308 41.1401C54.7954 41.8462 55.4979 42.7144 56.0383 43.7447C56.5786 44.775 56.9137 45.953 57.0434 47.2787ZM80.9952 50.3263C80.9952 52.7616 80.5268 54.8258 79.5902 56.5189C78.6536 58.2121 77.3855 59.4982 75.786 60.3772C74.1937 61.2562 72.4069 61.6957 70.4256 61.6957C68.437 61.6957 66.6466 61.2526 65.0543 60.3664C63.462 59.4802 62.1976 58.1941 61.2609 56.5081C60.3315 54.815 59.8668 52.7544 59.8668 50.3263C59.8668 47.8911 60.3315 45.8269 61.2609 44.1337C62.1976 42.4406 63.462 41.1545 65.0543 40.2755C66.6466 39.3965 68.437 38.957 70.4256 38.957C72.4069 38.957 74.1937 39.3965 75.786 40.2755C77.3855 41.1545 78.6536 42.4406 79.5902 44.1337C80.5268 45.8269 80.9952 47.8911 80.9952 50.3263ZM75.5266 50.3263C75.5266 48.8854 75.3213 47.6677 74.9106 46.6735C74.5071 45.6792 73.9235 44.9263 73.1598 44.4147C72.4033 43.9032 71.4919 43.6474 70.4256 43.6474C69.3664 43.6474 68.455 43.9032 67.6913 44.4147C66.9276 44.9263 66.3404 45.6792 65.9297 46.6735C65.5262 47.6677 65.3245 48.8854 65.3245 50.3263C65.3245 51.7673 65.5262 52.9849 65.9297 53.9792C66.3404 54.9735 66.9276 55.7264 67.6913 56.238C68.455 56.7495 69.3664 57.0053 70.4256 57.0053C71.4919 57.0053 72.4033 56.7495 73.1598 56.238C73.9235 55.7264 74.5071 54.9735 74.9106 53.9792C75.3213 52.9849 75.5266 51.7673 75.5266 50.3263Z" fill="black"/>
<rect x="2" y="39" width="26" height="22" fill="#1C6DD0"/>
<rect x="53" y="14" width="29" height="22" fill="#1C6DD0"/>
</svg>
