<svg width="209" height="73" viewBox="0 0 209 73" fill="none" xmlns="http://www.w3.org/2000/svg">
<path d="M2.5394 35.3916V13.2582H11.7689C13.426 13.2582 14.8129 13.4923 15.9297 13.9606C17.0537 14.429 17.8966 15.0846 18.4586 15.9276C19.0278 16.7706 19.3124 17.7468 19.3124 18.8564C19.3124 19.6994 19.1359 20.4523 18.7829 21.1151C18.4298 21.7708 17.9435 22.3147 17.3239 22.747C16.7042 23.1793 15.9873 23.4819 15.1732 23.6548V23.871C16.0666 23.9142 16.8916 24.1556 17.6481 24.5951C18.4118 25.0346 19.0242 25.647 19.4853 26.4323C19.9464 27.2105 20.177 28.1327 20.177 29.199C20.177 30.3878 19.8744 31.4506 19.2692 32.3872C18.664 33.3166 17.7886 34.0515 16.643 34.5919C15.4974 35.1251 14.1069 35.3916 12.4714 35.3916H2.5394ZM7.88904 31.0795H11.1961C12.3561 31.0795 13.2099 30.8597 13.7574 30.4202C14.3122 29.9808 14.5896 29.3683 14.5896 28.583C14.5896 28.0138 14.4563 27.5239 14.1897 27.1132C13.9231 26.6953 13.5449 26.3747 13.055 26.1513C12.565 25.9208 11.9778 25.8055 11.2934 25.8055H7.88904V31.0795ZM7.88904 22.358H10.8503C11.4338 22.358 11.9526 22.2607 12.4065 22.0662C12.8604 21.8716 13.2135 21.5906 13.4656 21.2232C13.725 20.8557 13.8547 20.4126 13.8547 19.8939C13.8547 19.1518 13.5917 18.5682 13.0658 18.1431C12.5398 17.718 11.8301 17.5055 10.9367 17.5055H7.88904V22.358ZM27.4287 35.6726C26.3696 35.6726 25.4294 35.4961 24.608 35.1431C23.7939 34.7828 23.149 34.2425 22.6735 33.522C22.2052 32.7943 21.971 31.8828 21.971 30.7877C21.971 29.8655 22.1331 29.0873 22.4574 28.4533C22.7816 27.8193 23.2283 27.3041 23.7975 26.9079C24.3666 26.5116 25.0223 26.2126 25.7644 26.0108C26.5065 25.8019 27.299 25.6614 28.142 25.5894C29.0859 25.5029 29.846 25.4128 30.4224 25.3192C30.9988 25.2183 31.4166 25.0778 31.676 24.8977C31.9426 24.7104 32.0759 24.4474 32.0759 24.1088V24.0547C32.0759 23.4999 31.885 23.0712 31.5031 22.7686C31.1212 22.466 30.6061 22.3147 29.9577 22.3147C29.2588 22.3147 28.6968 22.466 28.2717 22.7686C27.8466 23.0712 27.5764 23.4891 27.4612 24.0223L22.587 23.8494C22.7311 22.8407 23.1022 21.9401 23.7002 21.1475C24.3054 20.3478 25.134 19.721 26.1859 19.2671C27.245 18.8059 28.5167 18.5754 30.0009 18.5754C31.06 18.5754 32.0363 18.7015 32.9297 18.9536C33.8231 19.1986 34.6012 19.5589 35.2641 20.0344C35.9269 20.5027 36.4385 21.0791 36.7987 21.7636C37.1662 22.448 37.3499 23.2298 37.3499 24.1088V35.3916H32.3785V33.0789H32.2488C31.9534 33.6408 31.5752 34.1164 31.114 34.5054C30.6601 34.8945 30.1234 35.1863 29.5037 35.3808C28.8913 35.5754 28.1997 35.6726 27.4287 35.6726ZM29.0606 32.2143C29.6298 32.2143 30.1414 32.099 30.5953 31.8684C31.0564 31.6379 31.4239 31.3209 31.6976 30.9174C31.9714 30.5067 32.1083 30.0312 32.1083 29.4908V27.9129C31.957 27.9922 31.7733 28.0642 31.5571 28.1291C31.3482 28.1939 31.1176 28.2552 30.8655 28.3128C30.6133 28.3705 30.3539 28.4209 30.0873 28.4641C29.8208 28.5073 29.565 28.547 29.32 28.583C28.8229 28.6623 28.3978 28.7847 28.0448 28.9504C27.6989 29.1162 27.4323 29.3323 27.245 29.5989C27.0649 29.8583 26.9748 30.1681 26.9748 30.5283C26.9748 31.0759 27.1694 31.4938 27.5584 31.782C27.9547 32.0702 28.4554 32.2143 29.0606 32.2143ZM45.8661 25.9244V35.3916H40.5813V13.2582H45.6932V21.8392H45.8769C46.2515 20.8161 46.864 20.0164 47.7141 19.44C48.5715 18.8636 49.6198 18.5754 50.8591 18.5754C52.0263 18.5754 53.0422 18.8348 53.9068 19.3535C54.7713 19.8651 55.4414 20.5892 55.9169 21.5258C56.3996 22.4624 56.6374 23.5576 56.6302 24.8112V35.3916H51.3454V25.8487C51.3526 24.9265 51.1221 24.206 50.6537 23.6873C50.1854 23.1685 49.5262 22.9091 48.676 22.9091C48.1212 22.9091 47.6313 23.0316 47.2062 23.2766C46.7883 23.5143 46.4605 23.8566 46.2227 24.3033C45.9922 24.75 45.8733 25.2904 45.8661 25.9244ZM70.6392 28.2264V18.7915H75.9132V35.3916H70.877V32.3007H70.7041C70.3366 33.3166 69.7098 34.1236 68.8236 34.7216C67.9446 35.3124 66.8819 35.6078 65.6354 35.6078C64.5043 35.6078 63.51 35.3484 62.6526 34.8296C61.7952 34.3109 61.1288 33.5868 60.6532 32.6574C60.1777 31.7207 59.9364 30.6256 59.9291 29.3719V18.7915H65.2139V28.3344C65.2211 29.235 65.4589 29.9447 65.9272 30.4635C66.3955 30.9822 67.0332 31.2416 67.8401 31.2416C68.3661 31.2416 68.838 31.1263 69.2559 30.8958C69.681 30.658 70.016 30.3158 70.261 29.8691C70.5131 29.4152 70.6392 28.8676 70.6392 28.2264ZM79.277 18.7915H84.5618V36.0833C84.5618 37.4522 84.2808 38.5402 83.7188 39.3471C83.1641 40.1541 82.3787 40.7341 81.3628 41.0871C80.3469 41.4401 79.1473 41.6167 77.764 41.6167C77.5767 41.6167 77.4001 41.6131 77.2344 41.6059C77.0687 41.5987 76.8886 41.5915 76.694 41.5842V37.5747C76.8237 37.5891 76.939 37.5999 77.0399 37.6071C77.1408 37.6143 77.2416 37.6179 77.3425 37.6179C78.0702 37.6179 78.5745 37.4811 78.8555 37.2073C79.1365 36.9407 79.277 36.53 79.277 35.9752V18.7915ZM81.914 16.857C81.1719 16.857 80.5343 16.6121 80.0011 16.1221C79.4679 15.625 79.2014 15.027 79.2014 14.3281C79.2014 13.6364 79.4679 13.0456 80.0011 12.5557C80.5343 12.0586 81.1719 11.81 81.914 11.81C82.6633 11.81 83.3009 12.0586 83.8269 12.5557C84.3601 13.0456 84.6266 13.6364 84.6266 14.3281C84.6266 15.027 84.3601 15.625 83.8269 16.1221C83.3009 16.6121 82.6633 16.857 81.914 16.857ZM92.6052 35.6726C91.5461 35.6726 90.6058 35.4961 89.7845 35.1431C88.9703 34.7828 88.3255 34.2425 87.8499 33.522C87.3816 32.7943 87.1475 31.8828 87.1475 30.7877C87.1475 29.8655 87.3096 29.0873 87.6338 28.4533C87.958 27.8193 88.4047 27.3041 88.9739 26.9079C89.5431 26.5116 90.1987 26.2126 90.9408 26.0108C91.683 25.8019 92.4755 25.6614 93.3185 25.5894C94.2623 25.5029 95.0224 25.4128 95.5988 25.3192C96.1752 25.2183 96.5931 25.0778 96.8525 24.8977C97.1191 24.7104 97.2523 24.4474 97.2523 24.1088V24.0547C97.2523 23.4999 97.0614 23.0712 96.6796 22.7686C96.2977 22.466 95.7825 22.3147 95.1341 22.3147C94.4352 22.3147 93.8732 22.466 93.4482 22.7686C93.0231 23.0712 92.7529 23.4891 92.6376 24.0223L87.7635 23.8494C87.9076 22.8407 88.2786 21.9401 88.8766 21.1475C89.4819 20.3478 90.3104 19.721 91.3623 19.2671C92.4215 18.8059 93.6931 18.5754 95.1773 18.5754C96.2365 18.5754 97.2127 18.7015 98.1061 18.9536C98.9995 19.1986 99.7777 19.5589 100.441 20.0344C101.103 20.5027 101.615 21.0791 101.975 21.7636C102.343 22.448 102.526 23.2298 102.526 24.1088V35.3916H97.555V33.0789H97.4253C97.1299 33.6408 96.7516 34.1164 96.2905 34.5054C95.8366 34.8945 95.2998 35.1863 94.6802 35.3808C94.0678 35.5754 93.3761 35.6726 92.6052 35.6726ZM94.2371 32.2143C94.8063 32.2143 95.3178 32.099 95.7717 31.8684C96.2329 31.6379 96.6003 31.3209 96.8741 30.9174C97.1479 30.5067 97.2848 30.0312 97.2848 29.4908V27.9129C97.1335 27.9922 96.9497 28.0642 96.7336 28.1291C96.5246 28.1939 96.2941 28.2552 96.0419 28.3128C95.7897 28.3705 95.5304 28.4209 95.2638 28.4641C94.9972 28.5073 94.7414 28.547 94.4965 28.583C93.9993 28.6623 93.5742 28.7847 93.2212 28.9504C92.8754 29.1162 92.6088 29.3323 92.4215 29.5989C92.2413 29.8583 92.1513 30.1681 92.1513 30.5283C92.1513 31.0759 92.3458 31.4938 92.7349 31.782C93.1311 32.0702 93.6319 32.2143 94.2371 32.2143ZM111.043 25.9244V35.3916H105.758V18.7915H110.783V21.8392H110.967C111.334 20.8233 111.961 20.0272 112.847 19.4508C113.734 18.8672 114.789 18.5754 116.014 18.5754C117.181 18.5754 118.193 18.8384 119.051 19.3643C119.915 19.8831 120.585 20.6108 121.061 21.5474C121.544 22.4768 121.781 23.5648 121.774 24.8112V35.3916H116.489V25.8487C116.497 24.9265 116.262 24.206 115.787 23.6873C115.319 23.1685 114.667 22.9091 113.831 22.9091C113.276 22.9091 112.786 23.0316 112.361 23.2766C111.943 23.5143 111.619 23.8566 111.388 24.3033C111.165 24.75 111.05 25.2904 111.043 25.9244Z" fill="black"/>
<path d="M75.0434 45.7931H69.6397C69.5676 45.2383 69.4199 44.7376 69.1966 44.2909C68.9732 43.8442 68.6778 43.4623 68.3104 43.1453C67.9429 42.8283 67.507 42.5869 67.0027 42.4212C66.5055 42.2483 65.9544 42.1619 65.3492 42.1619C64.2756 42.1619 63.3498 42.4248 62.5717 42.9508C61.8007 43.4768 61.2063 44.2369 60.7885 45.2311C60.3778 46.2254 60.1724 47.4286 60.1724 48.8408C60.1724 50.3106 60.3814 51.5426 60.7993 52.5369C61.2244 53.524 61.8188 54.2697 62.5825 54.774C63.3534 55.2712 64.2648 55.5197 65.3167 55.5197C65.9075 55.5197 66.4443 55.4441 66.927 55.2928C67.417 55.1415 67.8457 54.9217 68.2131 54.6335C68.5878 54.3381 68.894 53.9815 69.1317 53.5636C69.3767 53.1385 69.546 52.6594 69.6397 52.1262L75.0434 52.1587C74.9497 53.1385 74.6651 54.104 74.1896 55.055C73.7213 56.0061 73.0764 56.8743 72.2551 57.6596C71.4337 58.4377 70.4322 59.0574 69.2506 59.5185C68.0762 59.9796 66.7289 60.2101 65.2087 60.2101C63.2057 60.2101 61.4117 59.7706 59.8266 58.8916C58.2487 58.0054 57.0023 56.7158 56.0873 55.0226C55.1722 53.3295 54.7147 51.2689 54.7147 48.8408C54.7147 46.4055 55.1794 44.3413 56.1089 42.6482C57.0383 40.955 58.2956 39.669 59.8806 38.79C61.4657 37.911 63.2417 37.4715 65.2087 37.4715C66.5488 37.4715 67.788 37.6588 68.9264 38.0334C70.0648 38.4009 71.0662 38.9413 71.9308 39.6545C72.7954 40.3606 73.4979 41.2288 74.0383 42.2591C74.5786 43.2894 74.9137 44.4674 75.0434 45.7931ZM85.8534 60.2209C84.1098 60.2209 82.6112 59.8643 81.3576 59.151C80.1111 58.4305 79.1492 57.429 78.472 56.1466C77.8019 54.8569 77.4669 53.3619 77.4669 51.6615C77.4669 49.954 77.8019 48.4589 78.472 47.1765C79.1492 45.8868 80.1111 44.8853 81.3576 44.172C82.6112 43.4515 84.1098 43.0913 85.8534 43.0913C87.597 43.0913 89.092 43.4515 90.3385 44.172C91.5921 44.8853 92.554 45.8868 93.224 47.1765C93.9013 48.4589 94.2399 49.954 94.2399 51.6615C94.2399 53.3619 93.9013 54.8569 93.224 56.1466C92.554 57.429 91.5921 58.4305 90.3385 59.151C89.092 59.8643 87.597 60.2209 85.8534 60.2209ZM85.8858 56.233C86.5199 56.233 87.0566 56.0385 87.4961 55.6494C87.9356 55.2604 88.2707 54.72 88.5012 54.0283C88.739 53.3367 88.8579 52.5369 88.8579 51.6291C88.8579 50.7069 88.739 49.8999 88.5012 49.2083C88.2707 48.5166 87.9356 47.9762 87.4961 47.5871C87.0566 47.1981 86.5199 47.0036 85.8858 47.0036C85.2302 47.0036 84.6754 47.1981 84.2215 47.5871C83.7748 47.9762 83.4326 48.5166 83.1948 49.2083C82.9642 49.8999 82.849 50.7069 82.849 51.6291C82.849 52.5369 82.9642 53.3367 83.1948 54.0283C83.4326 54.72 83.7748 55.2604 84.2215 55.6494C84.6754 56.0385 85.2302 56.233 85.8858 56.233ZM102.232 37.7741V59.9075H96.9472V37.7741H102.232ZM110.881 37.7741V59.9075H105.596V37.7741H110.881ZM122.004 60.2209C120.268 60.2209 118.769 59.8787 117.508 59.1942C116.254 58.5026 115.289 57.5191 114.612 56.2438C113.942 54.9614 113.607 53.4375 113.607 51.6723C113.607 49.9576 113.945 48.4589 114.623 47.1765C115.3 45.8868 116.254 44.8853 117.487 44.172C118.719 43.4515 120.17 43.0913 121.842 43.0913C123.024 43.0913 124.104 43.275 125.084 43.6425C126.064 44.0099 126.911 44.5539 127.624 45.2744C128.337 45.9949 128.892 46.8847 129.288 47.9438C129.684 48.9957 129.883 50.2025 129.883 51.5643V52.8828H115.455V49.8135H124.965C124.958 49.2515 124.825 48.7507 124.565 48.3112C124.306 47.8717 123.949 47.5295 123.495 47.2845C123.049 47.0324 122.534 46.9063 121.95 46.9063C121.359 46.9063 120.83 47.0396 120.361 47.3062C119.893 47.5655 119.522 47.9222 119.248 48.3761C118.974 48.8228 118.83 49.3307 118.816 49.8999V53.0232C118.816 53.7005 118.949 54.2949 119.216 54.8065C119.482 55.3108 119.861 55.7035 120.35 55.9845C120.84 56.2655 121.424 56.4059 122.101 56.4059C122.57 56.4059 122.995 56.3411 123.377 56.2114C123.758 56.0817 124.086 55.8908 124.36 55.6386C124.634 55.3865 124.839 55.0766 124.976 54.7092L129.829 54.8497C129.627 55.9376 129.184 56.8851 128.499 57.692C127.822 58.4918 126.932 59.115 125.83 59.5617C124.727 60.0012 123.452 60.2209 122.004 60.2209ZM140.331 60.2209C138.58 60.2209 137.078 59.8607 135.824 59.1402C134.577 58.4197 133.619 57.4182 132.949 56.1358C132.279 54.8461 131.944 53.3547 131.944 51.6615C131.944 49.9612 132.279 48.4697 132.949 47.1873C133.626 45.8976 134.588 44.8925 135.835 44.172C137.088 43.4515 138.583 43.0913 140.32 43.0913C141.854 43.0913 143.191 43.3687 144.329 43.9235C145.475 44.4782 146.368 45.2636 147.01 46.2795C147.658 47.2881 148 48.4734 148.036 49.8351H143.097C142.996 48.9849 142.708 48.3184 142.233 47.8357C141.764 47.353 141.152 47.1116 140.395 47.1116C139.783 47.1116 139.246 47.2845 138.785 47.6304C138.324 47.969 137.964 48.4734 137.704 49.1434C137.452 49.8063 137.326 50.6276 137.326 51.6075C137.326 52.5874 137.452 53.4159 137.704 54.0932C137.964 54.7632 138.324 55.2712 138.785 55.617C139.246 55.9556 139.783 56.125 140.395 56.125C140.885 56.125 141.318 56.0205 141.692 55.8115C142.074 55.6026 142.388 55.2964 142.633 54.8929C142.878 54.4822 143.032 53.9851 143.097 53.4015H148.036C147.986 54.7704 147.644 55.9664 147.01 56.9895C146.383 58.0126 145.5 58.8088 144.362 59.378C143.231 59.94 141.887 60.2209 140.331 60.2209ZM160.111 43.3074V47.1981H149.638V43.3074H160.111ZM151.832 39.3303H157.117V54.6876C157.117 55.0118 157.168 55.2748 157.268 55.4765C157.376 55.671 157.531 55.8115 157.733 55.898C157.935 55.9773 158.176 56.0169 158.457 56.0169C158.659 56.0169 158.871 55.9989 159.095 55.9628C159.325 55.9196 159.498 55.8836 159.614 55.8548L160.413 59.6698C160.161 59.7418 159.805 59.8319 159.343 59.94C158.89 60.048 158.346 60.1165 157.712 60.1453C156.472 60.2029 155.41 60.0588 154.523 59.713C153.644 59.36 152.971 58.8124 152.502 58.0703C152.041 57.3282 151.818 56.3951 151.832 55.2712V39.3303ZM162.807 59.9075V43.3074H168.092V59.9075H162.807ZM165.455 41.3729C164.713 41.3729 164.075 41.128 163.542 40.638C163.009 40.1409 162.742 39.5429 162.742 38.844C162.742 38.1523 163.009 37.5615 163.542 37.0716C164.075 36.5745 164.713 36.3259 165.455 36.3259C166.204 36.3259 166.842 36.5745 167.368 37.0716C167.901 37.5615 168.168 38.1523 168.168 38.844C168.168 39.5429 167.901 40.1409 167.368 40.638C166.842 41.128 166.204 41.3729 165.455 41.3729ZM187.559 43.3074L181.863 59.9075H175.811L170.126 43.3074H175.692L178.751 54.7416H178.924L181.993 43.3074H187.559ZM196.81 60.2209C195.073 60.2209 193.575 59.8787 192.314 59.1942C191.06 58.5026 190.095 57.5191 189.418 56.2438C188.748 54.9614 188.412 53.4375 188.412 51.6723C188.412 49.9576 188.751 48.4589 189.428 47.1765C190.106 45.8868 191.06 44.8853 192.292 44.172C193.524 43.4515 194.976 43.0913 196.648 43.0913C197.829 43.0913 198.91 43.275 199.89 43.6425C200.87 44.0099 201.716 44.5539 202.43 45.2744C203.143 45.9949 203.698 46.8847 204.094 47.9438C204.49 48.9957 204.688 50.2025 204.688 51.5643V52.8828H190.261V49.8135H199.771C199.764 49.2515 199.631 48.7507 199.371 48.3112C199.112 47.8717 198.755 47.5295 198.301 47.2845C197.855 47.0324 197.339 46.9063 196.756 46.9063C196.165 46.9063 195.635 47.0396 195.167 47.3062C194.699 47.5655 194.328 47.9222 194.054 48.3761C193.78 48.8228 193.636 49.3307 193.622 49.8999V53.0232C193.622 53.7005 193.755 54.2949 194.022 54.8065C194.288 55.3108 194.666 55.7035 195.156 55.9845C195.646 56.2655 196.23 56.4059 196.907 56.4059C197.375 56.4059 197.8 56.3411 198.182 56.2114C198.564 56.0817 198.892 55.8908 199.166 55.6386C199.44 55.3865 199.645 55.0766 199.782 54.7092L204.634 54.8497C204.433 55.9376 203.989 56.8851 203.305 57.692C202.628 58.4918 201.738 59.115 200.636 59.5617C199.533 60.0012 198.258 60.2209 196.81 60.2209Z" fill="black"/>
<path d="M3 40H46V60H3V40Z" fill="#1C6DD0"/>
<path d="M130 13H206V35H130V13Z" fill="#1C6DD0"/>
</svg>
